<?xml version="1.0" encoding="UTF-8"?>
<!DOCTYPE svg PUBLIC "-//W3C//DTD SVG 1.1//EN" "http://www.w3.org/Graphics/SVG/1.1/DTD/svg11.dtd">
<!-- Creator: CorelDRAW 2017 -->
<svg xmlns="http://www.w3.org/2000/svg" xml:space="preserve" width="21.2214in" height="21.1693in" version="1.1" style="shape-rendering:geometricPrecision; text-rendering:geometricPrecision; image-rendering:optimizeQuality; fill-rule:evenodd; clip-rule:evenodd"
viewBox="0 0 6681 6664"
 xmlns:xlink="http://www.w3.org/1999/xlink">
 <defs>
  <style type="text/css">
   <![CDATA[
    .str4 {stroke:#021D38;stroke-width:17.489}
    .str2 {stroke:aqua;stroke-width:34.978}
    .str0 {stroke:white;stroke-width:69.956}
    .str1 {stroke:black;stroke-width:2.18628}
    .str3 {stroke:white;stroke-width:2.18628}
    .fil10 {fill:none}
    .fil15 {fill:none;fill-rule:nonzero}
    .fil8 {fill:#021D38}
    .fil9 {fill:#154985}
    .fil0 {fill:#1BA3ED}
    .fil1 {fill:#3DB1F0}
    .fil2 {fill:#5FBFF2}
    .fil3 {fill:#82CDF5}
    .fil4 {fill:#A4DAF8}
    .fil5 {fill:#C6E8FA}
    .fil6 {fill:#E8F6FD}
    .fil13 {fill:white}
    .fil7 {fill:white}
    .fil12 {fill:black;fill-rule:nonzero}
    .fil14 {fill:aqua;fill-rule:nonzero}
    .fil11 {fill:#154985;fill-rule:nonzero}
    .fil16 {fill:white;fill-rule:nonzero}
   ]]>
  </style>
   <clipPath id="id0">
    <path d="M3323 17c1822,0 3299,1484 3299,3315 0,1831 -1477,3315 -3299,3315 -1822,0 -3299,-1484 -3299,-3315 0,-1831 1477,-3315 3299,-3315z"/>
   </clipPath>
 </defs>
 <g id="Layer_x0020_1">
  <metadata id="CorelCorpID_0Corel-Layer"/>
  <circle class="fil0" cx="3316" cy="3333" r="3316"/>
  <g id="_352160992">
   <path class="fil1" d="M3307 414c1607,0 2910,1303 2910,2910 0,1607 -1303,2910 -2910,2910 -1607,0 -2910,-1303 -2910,-2910 0,-1607 1303,-2910 2910,-2910z"/>
   <path class="fil2" d="M3298 811c1383,0 2505,1121 2505,2505 0,1383 -1121,2505 -2505,2505 -1383,0 -2505,-1121 -2505,-2505 0,-1383 1121,-2505 2505,-2505z"/>
   <path class="fil3" d="M3290 1208c1159,0 2099,940 2099,2099 0,1159 -940,2099 -2099,2099 -1159,0 -2099,-940 -2099,-2099 0,-1159 940,-2099 2099,-2099z"/>
   <path class="fil4" d="M3281 1605c935,0 1694,758 1694,1694 0,935 -758,1694 -1694,1694 -935,0 -1694,-758 -1694,-1694 0,-935 758,-1694 1694,-1694z"/>
   <path class="fil5" d="M3272 2001c711,0 1288,577 1288,1288 0,711 -577,1288 -1288,1288 -711,0 -1288,-577 -1288,-1288 0,-711 577,-1288 1288,-1288z"/>
  </g>
  <circle class="fil6" cx="3263" cy="3281" r="883"/>
  <path class="fil7" d="M6334 2965c-1,0 -2,1 -2,1 0,0 0,0 2,-1zm-1597 602c82,156 206,619 206,619 0,0 106,-60 113,-84 8,-24 17,5 55,19 38,14 22,11 54,17 32,6 24,-17 25,-38 2,-20 3,-39 16,-33 13,6 65,30 85,28 20,-2 3,-43 11,-52 8,-9 84,17 112,17 28,0 8,-33 8,-43 0,-9 9,-8 19,-2 9,6 69,2 99,2 30,0 35,-9 46,-27 11,-17 -19,-39 -19,-39 0,0 20,6 82,20 61,14 106,-45 106,-45 0,0 12,-49 32,-45 20,4 105,-38 103,-50 -2,-19 -67,-6 -25,-38 7,-6 40,3 65,3 24,0 69,-44 77,-58 8,-13 -32,-7 -39,-12 -7,-5 7,-11 7,-11 0,0 47,2 76,1 28,-2 128,-92 128,-92 0,0 -48,-6 -55,-11 -7,-5 4,-15 4,-15 0,0 44,-12 92,-16 48,-4 92,-89 91,-96 -1,-7 -39,-17 -39,-17 0,0 -7,-19 47,-13 54,6 173,-108 173,-108 0,0 -6,-51 9,-51 16,0 110,-84 110,-84 0,0 -95,2 -136,6 -41,5 -6,-17 -5,-30 2,-13 145,-71 152,-77 7,-6 1,-28 -6,-35 -7,-8 -259,45 -242,9 17,-36 213,-122 225,-132 12,-9 -8,-16 -30,-25 -21,-9 -213,29 -235,34 22,-9 232,-112 248,-133 17,-21 -24,-25 -24,-25 0,0 -523,159 -586,156 -63,-3 -236,16 -259,28 -107,61 -156,31 -262,47 -41,6 -151,32 -151,32 -220,12 -299,-60 -482,-60 -26,-15 -49,-38 -79,-44 -60,-13 -122,-8 -183,-13 0,0 -156,44 -274,158 0,0 0,1 0,1 0,0 2,56 5,124 24,23 103,96 142,96 46,0 225,79 307,235z"/>
  <path class="fil7" d="M3050 3384c46,-13 251,-147 284,-157 -539,-479 -465,-148 -995,-148 -290,0 -554,-98 -599,-98 -45,0 -199,0 -227,-6 -28,-6 -560,-160 -574,-164 -13,-4 -27,9 -16,22 11,13 116,87 121,98 5,11 -136,-19 -144,-10 -9,9 -9,30 5,40 13,10 219,128 169,117 -50,-11 -183,-32 -188,-3 -5,28 123,87 118,106 -5,19 -129,13 -125,35 5,22 101,68 117,84 16,16 -19,22 8,50 27,28 118,109 136,110 17,2 58,-19 65,-5 6,14 -36,19 -30,35 6,16 90,106 158,106 68,0 44,22 32,25 -13,3 -41,-16 -39,3 2,19 58,109 102,99 46,-10 82,-18 104,-2 0,0 -55,9 -46,22 9,13 8,28 43,43 35,14 20,33 43,25 22,-8 33,-33 44,-16 11,17 -8,25 -17,32 -9,6 25,44 44,52 19,8 87,2 87,2 0,0 -8,43 9,52 17,9 167,19 161,35 -6,17 14,55 33,58 19,3 111,-6 119,-4 8,2 10,30 23,38 13,8 80,1 87,-2 7,-2 28,-2 28,-2 0,0 -12,28 -6,33 6,5 35,8 35,8 0,0 249,-319 278,-345 28,-25 350,-270 388,-300 38,-30 121,-57 167,-69z"/>
  <g>
   <path class="fil8" d="M3660 4960c1,1 1,2 2,3l-2 -3zm796 -429c14,-16 -39,31 14,13 10,-3 0,-17 -4,-18l-10 6zm-1725 1020l-2 0 -2 0 -12 1 -1 0c-9,1 -18,2 -28,3l-2 0 -11 1 -4 0 -10 1 -3 0 -3 0 -12 1 0 0c-14,2 -28,3 -42,4 14,-1 28,-3 42,-4l88 -10zm265 -33c3,0 7,-1 10,-1l-10 1zm50 -7c3,0 5,-1 8,-1l-8 1zm287 -2283c-33,9 -108,139 -284,157 -47,5 -129,39 -167,69 -11,9 -33,27 -63,52 -27,-8 -57,-10 -81,-9 33,15 52,20 65,22 -21,17 -44,36 -71,57 -55,-16 -80,8 -17,13 -29,22 -60,47 -94,72 -20,-12 -41,-5 -12,9 -18,13 -37,27 -56,41 -31,-12 -75,-5 -12,9 -15,11 -31,22 -47,33 -71,49 -132,105 -179,161 -22,3 -36,22 -42,50 -10,1 -4,-2 9,-6 -35,49 -58,98 -65,141 -1,6 -32,47 -72,103 -15,1 -29,6 -29,24 13,-13 16,-21 29,-23 -68,94 -164,228 -186,298 -14,14 -25,32 -21,47 2,0 8,-10 15,-20 -16,101 33,226 57,243 9,6 28,36 50,73 -7,34 -1,67 4,7 42,70 90,159 90,159 28,7 63,3 85,22 1,1 3,2 4,3 17,18 18,49 28,72 0,0 -14,217 13,262 27,46 -3,57 -3,57 71,45 137,100 205,151 84,63 170,121 269,149 338,95 698,84 1047,126 0,0 363,-674 410,-820 13,-41 35,-99 61,-162 69,-169 163,-370 177,-360 0,0 2,8 6,20 2,7 5,17 8,27 -15,7 -40,23 4,12 4,13 9,26 13,39 -4,7 -9,27 -1,42 3,-9 -4,-23 4,-34 13,35 27,66 37,69 24,9 -6,136 8,162 14,27 90,166 90,166 295,414 170,352 554,685 109,95 282,-69 422,-104 -41,-48 -126,8 -189,13 0,0 181,-309 184,-343 3,-35 -58,-244 -65,-274 -4,-20 -56,-91 -95,-140 92,106 153,11 0,0 -13,-16 -24,-30 -32,-39 22,-4 44,-16 48,-33 -41,23 -26,17 -91,10 -13,-5 -31,-13 -53,-25 70,-4 40,-5 -21,-12 -27,-15 -59,-36 -97,-64 61,28 36,-17 -30,-26 -12,-12 -23,-26 -34,-42 10,6 22,10 33,8 -2,-2 -22,-10 -38,-16 -11,-17 -22,-35 -32,-54 30,29 23,4 -14,-27 -15,-30 -29,-61 -42,-92 32,33 84,58 -9,-23 -11,-27 -20,-54 -29,-79 44,34 104,44 -14,-41 -13,-40 -23,-73 -28,-92 69,54 100,23 -10,-36 -7,-25 -20,-73 -37,-131 39,52 103,58 -16,-54l0 0c-5,-16 -10,-33 -15,-49 28,3 77,-11 -2,-7 -7,-22 -13,-44 -21,-66 6,0 12,0 18,-5 27,-21 -1,-10 -20,-1 -10,-31 -20,-63 -31,-93 30,43 49,13 -13,-36 -9,-26 -19,-52 -28,-75 30,29 4,-17 -20,-48 -6,-13 -11,-25 -17,-35 -6,-11 -11,-21 -18,-31 18,12 34,22 36,22 -17,-50 -25,-54 -66,-62 -17,-21 -36,-39 -55,-56 71,-1 42,-18 -19,-16 -22,-18 -44,-33 -66,-45 104,-3 29,-21 -43,-23 -34,-16 -63,-24 -78,-24 -38,0 -118,-73 -142,-96 -3,-68 -5,-124 -5,-124 0,0 0,-1 0,-1 -21,-426 -441,-709 -742,-346 -161,194 -207,462 -207,462zm1149 1384l0 0 0 0 0 0zm430 -529l42 47c65,73 -11,4 -24,-18 -9,-15 -8,-18 -18,-29zm-1687 920c0,1 0,2 0,2 0,-1 0,-2 0,-2zm0 4c0,1 0,2 0,2 0,-1 0,-2 0,-2zm-56 101c0,0 0,1 0,1 0,0 0,-1 0,-1zm502 -118l0 0 0 0 0 0zm-3 -9c0,0 0,-1 0,-1 0,0 0,1 0,1zm-3 -7c0,0 0,-1 -1,-1 0,0 0,1 1,1zm-1 -1c0,0 0,-1 -1,-1 0,0 0,1 1,1zm-7 -11c-3,-5 -6,-10 -9,-16 3,6 6,11 9,16zm-9 -16c-1,-1 -1,-2 -2,-4 1,1 1,3 2,4zm-3 -5c-1,-1 -1,-3 -2,-4 1,1 1,3 2,4zm-2 -4c0,0 0,-1 -1,-1 0,0 0,1 1,1zm-1 -2c-1,-1 -1,-3 -2,-4 1,2 1,3 2,4zm-2 -6c-1,-2 -1,-3 -2,-5 1,2 1,3 2,5zm-2 -5c-1,-2 -1,-5 -2,-7 1,3 1,5 2,7zm-2 -8c0,-2 -1,-4 -1,-6 0,2 1,4 1,6zm-2 -9c0,-1 0,-1 0,-2l0 0c0,1 0,1 0,2zm-507 590l0 0c-2,0 -4,1 -6,1l0 0c2,-1 4,-1 6,-2zm-7 2c-1,0 -3,1 -4,1 1,0 3,-1 4,-1zm-6 1c-1,0 -2,0 -3,1 1,0 2,0 3,-1zm-11 2c-1,0 -3,1 -4,1 1,0 3,-1 4,-1zm-6 1c-2,0 -4,1 -6,1 2,0 4,-1 6,-1zm-7 1c-2,0 -4,1 -7,1 2,0 4,-1 7,-1zm-32 6c-2,0 -4,1 -6,1 2,0 4,-1 6,-1zm-66 10c-3,0 -6,1 -9,1 3,0 6,-1 9,-1zm-56 8c-8,1 -15,2 -23,3 8,-1 16,-2 23,-3zm-115 14c-8,1 -17,2 -25,3 8,-1 17,-2 25,-3zm-67 8c-9,1 -18,2 -26,3 9,-1 18,-2 26,-3z"/>
  </g>
  <path class="fil7" d="M6600 1912c-5,106 -2449,90 -2539,11 -151,-57 -254,-194 -246,-348 10,-197 196,-348 416,-337 129,6 241,67 310,156 46,-41 105,-64 169,-61 50,2 95,21 132,50 66,-144 212,-241 376,-233 163,8 297,116 350,264 83,-38 190,-59 306,-53 56,3 110,11 159,25 70,-102 183,-166 306,-160 200,10 353,199 342,421 -9,172 -74,159 -80,264z"/>
  <path class="fil7" d="M780 1515c-68,61 -160,88 -250,66 -153,-37 -243,-203 -203,-370 36,-145 159,-243 291,-242 59,-143 192,-230 319,-199 59,15 108,52 142,104 67,-110 171,-172 268,-149 104,25 169,141 170,281 61,-28 131,-36 202,-19 165,40 266,204 226,366 -40,162 -205,260 -370,220 -13,-3 -26,-7 -39,-12 -41,112 -243,159 -463,105 -125,-31 -230,-88 -294,-153z"/>
  <path class="fil9" d="M2261 5069c15,-111 -83,-313 68,-369 152,-57 278,-93 367,12 89,105 168,126 178,236 10,110 -10,136 -5,236 5,100 -94,47 -278,47 -184,0 -330,-162 -330,-162z"/>
  <ellipse class="fil10 str0" transform="matrix(1 -0.134192 -0 1 3727.42 2622.59)" rx="666" ry="68"/>
  <path class="fil9" d="M4329 4146c-62,228 -209,324 -404,343 160,-76 296,-187 404,-343z"/>
  <g>
   <path class="fil11" d="M3348 3672c-29,9 -279,222 -318,253 -3,1 -5,2 -7,4 -2,2 -4,3 -6,5 -1,1 -1,2 -2,4 0,2 0,3 0,4 1,2 2,4 4,6 0,0 0,0 0,0 6,5 15,7 22,10 8,3 16,5 24,10 3,1 5,3 7,5 1,1 1,2 1,2 0,1 0,1 0,2 1,2 -25,84 -24,84 1,-2 -8,8 -11,19 -1,3 -1,5 0,8 1,3 2,5 4,7 3,3 5,4 9,6 5,2 10,3 16,3 62,2 78,-7 140,23 42,23 67,52 93,89 42,63 65,126 86,197 22,75 44,151 65,226 0,1 0,2 0,4 0,1 -1,2 -2,4 -36,52 -72,103 -109,154 -1,2 -3,3 -5,4 -2,1 -4,1 -6,1 -53,1 -105,2 -158,3 -3,0 -5,-1 -8,-2 -37,-22 -74,-44 -111,-66 -2,-2 -4,-3 -5,-6 -1,-2 -1,-5 -1,-7 7,-30 14,-60 20,-89 -1,3 0,5 1,7 0,0 -64,-101 -86,-137 1,1 2,2 3,3 0,0 -85,-63 -122,-90 2,2 4,2 7,3 0,0 -153,-11 -212,-16 2,0 4,0 6,-1 2,-1 3,-2 5,-3 1,-1 -168,158 -242,228 -2,2 -4,3 -7,4 -114,28 -228,56 -343,83 -284,66 325,-83 342,-87 2,0 3,-1 4,-2 1,0 223,-209 243,-228 -1,1 -2,1 -3,2 -1,0 -2,1 -4,0 0,0 156,13 212,17 -2,0 -4,-1 -6,-2 0,0 90,68 121,91 -1,-1 -2,-2 -3,-3 0,0 61,100 85,138 -1,-2 -2,-5 -1,-7 0,0 -16,66 -22,89 -1,3 0,5 1,8 1,3 3,5 6,6 37,22 74,45 110,67 3,2 6,3 10,3 53,-1 105,-1 158,-2 3,0 6,-1 9,-2 3,-1 5,-3 6,-5 29,-40 59,-80 87,-121 8,-11 15,-22 23,-33 1,-2 2,-4 2,-6 1,-1 0,-5 0,-6 -23,-75 -44,-151 -66,-226 -21,-71 -44,-134 -87,-198 -26,-38 -52,-67 -95,-91 -63,-31 -79,-22 -142,-25 -5,0 -9,-1 -14,-3 -3,-1 -5,-2 -7,-4 -1,-1 -2,-3 -2,-5 0,-2 0,-4 0,-6 3,-10 6,-10 10,-17 8,-17 22,-67 27,-86 0,-2 0,-3 0,-5 0,-2 -1,-3 -2,-5 -2,-3 -5,-5 -9,-8 -8,-5 -16,-8 -25,-11 -5,-2 -14,-5 -18,-8 0,0 -1,-1 -1,-1 0,0 0,0 0,0 0,0 0,0 0,-1 1,-1 1,-1 2,-2 1,-1 5,-2 5,-2 102,-74 316,-266 313,-263z"/>
  </g>
  <path class="fil10" d="M3356 3674c0,0 -285,247 -321,260 -36,13 52,21 45,45 -6,24 -27,84 -27,84 0,0 -36,37 15,42 52,5 214,-41 311,311l63 227 -111 155 -159 3 -112 -67 21 -91 -86 -138 -122 -91 -214 -16 -242 230 -430 108"/>
  <g>
   <path class="fil11" d="M4765 3775c-7,-56 -58,-81 -113,-49 -1,1 -9,6 -10,6 -16,6 -30,10 -44,21 -10,6 -17,13 -21,23 -3,9 -3,16 -1,25 3,10 8,18 15,27 25,26 52,43 83,61 36,21 54,50 74,86 20,37 36,75 55,113 20,41 39,74 68,110 29,36 53,56 87,86 57,49 -47,-6 -100,-75 -28,-39 -43,-74 -59,-119 -14,-40 -25,-80 -39,-120 -9,-23 -26,-63 -45,-81 -9,-7 -17,-13 -28,-18 -29,-14 -55,-29 -79,-51 -5,-6 -9,-12 -12,-19 -2,-4 -3,-8 -2,-12 2,-7 6,-10 12,-14 11,-7 22,-9 34,-10 49,-5 153,23 125,10z"/>
  </g>
  <path class="fil10" d="M4762 3799c-193,-110 -266,7 -104,116 91,62 81,312 309,409"/>
  <g>
   <path class="fil11" d="M5128 4740c-36,17 -48,34 -1,49 23,7 37,25 51,43 2,6 6,16 10,20 1,1 2,1 2,-1 0,-3 -2,-6 -4,-9 -3,-3 -4,-4 -7,-6 -1,-1 -1,-2 1,-2 6,-3 16,-4 22,-5 36,-9 74,-2 110,7 20,6 37,13 49,31 18,32 -20,-1 -52,-13 -35,-12 -72,-23 -106,-37 -4,-1 -18,-3 -21,-6 0,0 0,0 0,0 1,1 3,2 4,3 6,3 11,6 16,12 5,5 8,11 10,18 0,1 0,6 -2,6 -5,-2 -10,-14 -11,-19 -5,-7 -77,-114 -69,-91z"/>
  </g>
  <path class="fil10" d="M5150 4733c32,192 -45,111 153,149 19,4 32,7 47,19"/>
  <g>
   <path class="fil11" d="M3552 2994c52,4 77,-26 65,-79 -8,-33 4,-71 23,-98 22,-23 45,-32 76,-38 43,-11 85,-10 129,-9 29,2 49,10 73,25 22,14 39,29 57,47 25,26 56,62 73,94 31,64 -82,-80 -84,-83 -16,-19 -31,-36 -51,-52 -22,-17 -41,-28 -69,-33 -2,-1 -108,-19 -115,-17 -5,2 -11,3 -16,5 -35,9 -59,20 -85,45 -18,29 -100,231 -77,193z"/>
  </g>
  <path class="fil10" d="M3529 2986c123,-165 95,-191 311,-172 69,6 135,107 198,157"/>
  <g>
   <path class="fil11" d="M2102 4751c54,56 133,32 186,-15 19,-18 51,-39 73,-54 67,-44 118,-85 177,-139 46,-41 90,-84 140,-120 24,-16 45,-27 73,-35 31,-7 54,-6 84,3 83,30 156,62 219,126 39,44 57,79 69,136 5,24 9,59 19,81 5,10 11,16 20,23 7,6 14,10 22,14 81,39 -9,10 -30,-1 -12,-7 -20,-14 -27,-27 -13,-24 -16,-59 -21,-86 -10,-54 -25,-88 -61,-131 -58,-68 -128,-104 -208,-139 -31,-12 -55,-14 -88,-9 -31,6 -53,15 -80,30 -14,8 -40,23 -53,33 -30,28 -60,58 -90,86 -57,55 -105,95 -173,135 -100,54 -261,90 -250,90z"/>
  </g>
  <path class="fil10" d="M2091 4728c420,13 568,-355 728,-296 409,152 149,338 395,380"/>
  <g>
   <path class="fil11" d="M4292 3250c-74,-4 -99,85 -106,142 -16,102 -115,257 -178,335 -33,37 -62,65 -104,92 -43,25 -78,37 -128,38 -56,-1 -95,-17 -142,-47 -59,-41 -97,-86 -139,-144 -124,-199 -39,-220 -116,-382 -63,-115 29,-37 60,209 9,74 30,103 64,168 38,59 74,107 129,152 46,34 86,53 143,59 43,2 90,-4 128,-24 4,-2 8,-5 12,-7 44,-29 74,-59 107,-99 89,-126 305,-542 270,-491z"/>
  </g>
  <path class="fil10" d="M4316 3259c-166,199 -440,879 -781,381 -129,-188 -6,-225 -164,-423"/>
  <g>
   <path class="fil11" d="M2264 4291c21,47 41,35 63,-5 43,-66 241,-103 314,-115 76,-12 150,-20 227,-10 32,5 59,11 88,27 13,8 23,15 33,27 10,12 16,23 18,39 0,0 0,2 0,2 1,30 -3,28 -11,2 -4,-13 -9,-21 -18,-31 -9,-10 -18,-16 -30,-22 -27,-14 -52,-21 -82,-27 -76,-16 -149,-20 -226,-20 -4,-1 -62,1 -68,2 -218,65 -308,132 -308,132z"/>
  </g>
  <path class="fil10" d="M2256 4269c115,-24 678,-131 717,-5l7 21"/>
  <g>
   <path class="fil11" d="M3424 4776c-43,-18 -82,-30 -26,25 45,48 34,111 14,168 -14,35 -30,62 -58,88 -24,21 -54,40 -87,34 -42,-14 35,-29 72,-49 33,-17 62,-36 92,-59 1,-1 17,-14 18,-16 10,-118 -23,-212 -24,-191z"/>
  </g>
  <path class="fil10" d="M3455 4791c-39,72 -127,227 -215,257"/>
  <g>
   <path class="fil11" d="M3663 4176c-56,0 -85,15 -25,59 52,42 63,117 42,178 -17,34 -37,54 -68,75 -30,19 -63,31 -99,26 -59,-14 77,-37 90,-40 36,-13 61,-26 89,-52 3,-1 28,-25 28,-28 -5,-50 -57,-260 -58,-218z"/>
  </g>
  <path class="fil10" d="M3698 4179c-46,202 -60,228 -215,294"/>
  <g>
   <path class="fil11" d="M3056 4176c-32,27 -26,48 20,50 47,4 128,79 165,108 33,25 66,49 100,73 22,15 56,34 75,50 41,38 -62,-22 -82,-39 -32,-30 -56,-59 -82,-95 -2,-3 -15,-20 -16,-21 -34,-23 -190,-140 -180,-126z"/>
  </g>
  <path class="fil10" d="M3074 4164c50,108 212,302 346,325"/>
  <g>
   <path class="fil11" d="M4700 4560c14,39 34,45 56,4 26,-44 98,-64 146,-67 37,2 62,11 92,33 27,23 47,52 52,88 2,45 -33,-46 -59,-79 -26,-26 -48,-40 -83,-52 -1,-1 -30,-10 -32,-9 -28,10 -204,88 -171,82z"/>
  </g>
  <path class="fil10" d="M4696 4539c168,-5 255,-40 328,105"/>
  <g>
   <path class="fil11" d="M2265 4101c-52,-6 -71,30 -67,78 4,67 -69,184 -106,240 -28,45 -51,84 -70,133 -8,22 -14,42 -16,65 -1,16 0,29 7,43 -3,-4 -6,-6 -5,-6 2,2 5,3 7,4 10,5 21,9 32,13 16,6 35,13 50,21 48,31 -53,-4 -55,-5 -11,-4 -23,-8 -33,-13 -3,-2 -7,-3 -9,-6 -3,-2 0,-1 1,1 -8,-18 -8,-33 -4,-53 5,-24 14,-44 26,-66 35,-62 53,-71 87,-117 0,0 1,-2 1,-3 36,-62 187,-375 157,-331z"/>
  </g>
  <path class="fil10" d="M2285 4109c-80,98 -126,182 -217,292 -54,65 -144,207 -93,286 11,17 101,34 125,41"/>
  <g>
   <path class="fil11" d="M3090 3448c20,24 26,34 52,7 4,-6 6,-12 9,-19 12,-25 45,-38 70,-46 33,-9 61,-13 95,-8 17,3 29,8 44,18 16,12 24,24 31,42 15,38 17,107 17,147 -1,31 -3,61 -15,91 -5,14 -11,25 -22,36 -3,3 -5,5 -8,7 -4,3 -8,5 -12,6 -54,13 -16,-2 -4,-7 6,-3 10,-7 14,-13 8,-10 12,-20 16,-33 9,-29 14,-57 17,-87 4,-45 7,-104 7,-150 -5,-22 -13,-38 -29,-54 -6,-5 -17,-15 -25,-18 -8,-3 -16,-4 -24,-6 -37,-3 -67,2 -102,11 -32,9 -60,20 -89,37 -56,29 -43,41 -42,39z"/>
  </g>
  <path class="fil10" d="M3076 3432c37,-28 258,-63 278,19 6,25 27,259 -26,254"/>
  <line class="fil10 str1" x1="3606" y1="2970" x2="3584" y2= "2948" />
  <line class="fil10 str1" x1="3586" y1="2933" x2="3595" y2= "2921" />
  <path class="fil0" d="M3786 3198c-10,-2 -6,-1 -8,1l6 10c2,1 5,1 6,3 -4,11 -3,15 -16,8 -1,6 -2,21 -15,12 0,-4 0,-7 1,-11 -3,-4 -26,-20 -33,-22l-9 10c-3,3 -1,1 -4,3 -2,7 -29,37 -36,45 -12,15 -23,29 -35,45 -11,15 -26,33 -35,48 -11,19 9,42 19,50 21,-5 39,-16 65,-20 -11,-6 -35,3 -48,4 64,-32 257,2 307,53 -14,-6 -27,-17 -45,-22 8,6 20,13 29,20 10,8 18,16 27,22 8,-2 26,-14 32,-21 8,-12 0,-30 -3,-42 -4,-14 -24,-68 -23,-75 -5,-6 -32,-81 -31,-84 -16,-2 -30,7 -46,9 -1,5 2,3 -2,6 -12,-6 0,-5 -16,-12 -7,-3 -4,-2 -3,-3 -2,-17 -1,-5 5,-9 2,0 0,1 5,-4 2,-2 3,-3 5,-5 -2,-2 3,-2 -7,-4 -8,6 -18,1 -30,-1 -5,-7 -1,-9 -11,-12l-11 -4 -3 2c0,0 -1,1 -1,1l-8 7c-9,-2 -24,-1 -28,-9z"/>
  <path class="fil0" d="M3627 3440c8,-1 4,0 10,-4 3,-2 4,-3 7,-5 12,-8 36,-20 51,-20 -18,8 -44,17 -55,28 -13,13 -9,57 -2,70 2,-10 4,-23 9,-31 1,21 8,84 21,104 3,5 1,2 4,5 -1,-18 -4,-55 13,-64 19,10 11,49 18,67 13,-17 12,-25 32,-35 -4,21 -6,48 1,64 4,-21 20,-56 36,-60 12,18 16,41 12,68 13,-14 19,-39 23,-60 12,12 16,26 18,47 9,-20 21,-58 40,-61 13,15 -3,49 -9,65 13,-6 28,-31 34,-43 9,-15 19,-35 25,-52 2,9 0,22 -2,32 11,-10 31,-50 22,-67 -10,-19 -32,-31 -41,-45 33,15 42,45 53,50 42,-18 -24,-59 -40,-69 -55,-34 -157,-51 -221,-37 -13,3 -60,16 -65,28 -4,11 0,17 6,23z"/>
  <path class="fil0" d="M3694 3188c7,-10 74,-56 90,-66 1,0 6,-4 6,-4 5,-7 6,-1 -1,-5 -10,2 -96,7 -107,5l-49 -126c6,-3 7,-2 25,-1 9,0 17,1 27,1 51,2 38,2 89,28 11,6 28,16 41,21 -4,-8 -58,-75 -65,-79 -169,-97 -163,5 -167,125 -1,27 -3,23 12,42l75 99c-8,-20 -35,-61 -39,-75l49 43 14 -7z"/>
  <path class="fil0" d="M3984 3005l-81 50 89 -12c19,-3 65,14 86,21l11 6c-13,17 -30,35 -44,51 -13,15 -34,37 -43,52 -11,-2 -92,-37 -100,-41 -6,2 -7,-1 10,22l34 48c5,8 14,18 16,26 3,2 0,-1 4,3 4,5 5,10 11,15l57 -23c-11,17 -52,44 -58,57l103 -68c20,-13 17,-10 25,-36 10,-33 21,-66 31,-99 27,-83 -107,-97 -154,-72z"/>
  <path class="fil0" d="M3642 2902c18,6 42,20 59,28 20,9 72,31 84,46l50 68 -2 -27c7,6 11,23 19,25l6 -20 3 18 8 -16 1 21c8,0 16,-13 26,-18l-12 24c5,-4 74,-50 78,-52 6,-3 97,-13 108,-13l66 -8 -142 -9c33,-14 68,-28 99,-43l-154 36c8,-6 46,-21 60,-27l21 -10c-19,2 -138,50 -147,49 -11,-1 -105,-86 -124,-95l16 16c7,6 12,11 18,16 7,7 27,27 33,31l-136 -88c25,25 53,50 79,74l-137 -39 19 12z"/>
  <path class="fil0" d="M3693 3089c13,12 45,-11 62,-16 20,-6 68,2 59,-16 -11,-25 -50,-27 -78,-26 -10,1 2,30 -8,30 -11,0 0,-30 -9,-36 -16,-11 -48,-35 -55,-17 -11,27 9,62 30,81z"/>
  <path class="fil0" d="M3999 3073c-7,1 -11,31 -19,31 -8,0 10,-27 1,-31 -25,-10 -63,-23 -82,-3 -14,15 33,24 50,36 13,9 38,41 52,35 26,-12 57,-37 56,-65 -1,-20 -39,-6 -59,-3z"/>
  <path class="fil0" d="M3964 3228c-6,1 -4,-1 -5,4l1 -2c1,-7 0,-5 -11,-12l-4 -3c-6,21 -4,11 -6,12 -1,0 -2,0 -2,0 0,0 -1,0 -1,0l2 9c-1,3 26,78 31,84 5,-11 5,-9 4,-21 0,-6 -1,-3 2,-8 5,-10 2,5 5,-10 6,-12 47,-40 58,-57l-57 23c-6,-5 -7,-10 -11,-15 -4,-4 -1,-2 -4,-3z"/>
  <path class="fil0" d="M3759 3221c-2,3 -5,11 -1,11 6,0 10,-8 15,-12 5,-3 12,-4 16,-8 1,-2 -4,-2 -6,-3 -2,-1 -6,-1 -8,-3 -8,-8 -23,-15 -21,-25 3,-12 19,-24 31,-20 15,4 18,25 26,38 1,2 5,7 3,7 -10,0 -25,-16 -29,-6 -4,9 18,9 28,9 4,0 5,-5 8,-7 0,0 1,-1 1,-1 1,-1 4,-1 3,-2 -6,-11 -13,-20 -20,-30 -7,-10 -9,-29 -21,-28 -22,2 -53,12 -59,34 -5,20 28,30 39,46 1,2 -5,-1 -6,1z"/>
  <path class="fil0" d="M3838 3202c4,10 4,8 11,12 11,6 32,10 30,1 -3,-10 -23,3 -30,-4 -4,-4 0,-2 5,-6 5,-4 10,-7 16,-11 8,-5 12,-15 21,-16 10,-1 27,21 23,30 -4,9 -27,18 -38,20 -1,0 1,-2 0,-2 -6,3 -6,-9 -5,9 0,1 -4,0 3,3 16,7 3,9 16,12 4,1 0,-1 2,-6 4,-10 55,-20 52,-34 -4,-22 -25,-40 -45,-51 -8,-4 -22,14 -30,20 -8,6 -34,14 -30,23z"/>
  <path class="fil0" d="M3800 3123c9,17 31,50 34,61 10,-2 50,-37 56,-45 -13,1 -41,13 -50,10 -9,-3 -29,-21 -40,-26z"/>
  <path class="fil0" d="M3824 3104c10,-3 3,-4 12,-9 1,-8 2,-6 7,-13 4,3 3,5 6,9l11 -30c-11,1 -36,13 -48,18 -15,6 -31,14 -45,19l56 -13c3,7 3,13 2,20z"/>
  <path class="fil0" d="M3872 3108c0,1 2,2 2,2l11 -15c11,4 32,17 38,26l12 5c-12,-11 -24,-23 -36,-33 -9,-8 -29,-28 -39,-33l0 30c8,-2 0,-2 8,-5 2,9 5,14 4,23z"/>
  <path class="fil0" d="M3821 3115l-10 -2c3,7 -1,2 7,8 23,15 26,22 64,7l-2 -2c0,0 -20,-7 -59,-11z"/>
  <g>
   <path class="fil12" d="M3326 3694c-8,0 -15,8 -20,14 -21,24 -100,82 -130,100 -25,14 75,-52 85,-59 17,-14 71,-59 65,-55z"/>
  </g>
  <line class="fil10" x1="3328" y1="3694" x2="3171" y2= "3808" />
  <g>
   <path class="fil11" d="M3299 3705c-116,55 -149,120 -258,184 -11,6 -18,11 -26,21 -7,9 -10,17 -11,29 0,10 1,17 5,26 3,7 7,13 12,20 8,11 18,22 26,34 1,1 1,2 2,3 3,4 5,8 6,12 2,5 3,9 2,14 -2,13 -5,24 -8,37 -1,6 -2,11 -2,16 0,3 1,5 2,8 1,3 3,5 5,7 5,5 11,6 18,8 9,1 19,2 28,1 35,-2 70,-7 105,-11 6,-1 11,1 16,3 7,4 13,8 19,14 17,16 29,35 41,55 33,56 58,115 81,176 23,62 44,124 61,188 6,24 11,47 15,71 2,14 5,31 1,45 -14,38 -30,65 -58,94 -27,26 -52,42 -88,53 -36,9 -65,8 -100,-6 -40,-19 -63,-45 -85,-83 -112,-207 -40,-140 -223,-288 -6,-5 -12,-7 -20,-8 -11,-1 -20,0 -31,3 -30,8 -56,21 -84,36 -56,32 -110,72 -165,102 -130,69 -184,130 -294,202 -19,11 -34,19 -55,24 -22,5 -38,5 -59,-1 -24,-7 -40,-18 -59,-34 -24,-20 -42,-42 -62,-66 -9,-12 -14,-22 -17,-37 -3,-14 -3,-26 -1,-40 4,-30 13,-53 25,-81 23,-50 52,-97 73,-147 31,-78 54,-156 88,-234 120,-249 -69,208 -79,237 -21,50 -50,97 -73,147 -11,26 -20,49 -24,78 -1,13 -2,24 1,37 3,13 7,23 15,34 19,24 37,45 60,65 18,15 33,25 56,32 20,6 35,6 55,2 20,-5 35,-13 53,-23 111,-70 166,-131 297,-198 56,-29 110,-68 167,-99 27,-14 54,-27 84,-34 10,-2 20,-3 30,-2 7,1 13,3 18,8 183,150 108,89 216,291 19,33 41,62 74,81 5,3 10,5 15,8 38,15 68,16 107,6 38,-12 64,-29 92,-57 29,-30 46,-58 60,-98 5,-16 2,-33 0,-49 -4,-24 -10,-48 -16,-72 -18,-65 -38,-126 -61,-189 -24,-61 -48,-120 -81,-177 -12,-21 -25,-40 -42,-57 -7,-7 -13,-12 -21,-16 -8,-4 -14,-6 -23,-5 -34,4 -69,8 -104,9 -8,0 -17,0 -25,-2 -4,-1 -8,-2 -11,-4 -1,-1 -1,-1 -2,-2 0,-1 -1,-2 -1,-4 0,-4 1,-8 2,-12 4,-13 7,-24 10,-38 1,-8 1,-14 -1,-21 -2,-7 -5,-13 -8,-20 -7,-13 -16,-24 -23,-37 -3,-5 -6,-11 -9,-17 -2,-5 -3,-10 -3,-15 0,-6 2,-10 6,-14 5,-6 11,-10 18,-13 0,0 408,-313 247,-208z"/>
  </g>
  <path class="fil10" d="M3345 3690c-198,119 -147,154 -293,223 -69,33 26,84 17,137 -11,59 -59,84 136,63 87,-9 241,497 222,548 -50,136 -218,209 -303,53 -126,-230 -31,-137 -225,-296 -71,-58 -246,88 -324,128 -294,148 -329,347 -500,132 -52,-65 48,-198 81,-282 29,-72 78,-253 123,-313"/>
  <g>
  </g>
  <g style="clip-path:url(#id0)">
   <g>
    <path class="fil7" d="M1014 5038c220,0 420,79 569,209 217,-121 503,-195 816,-195 352,0 669,93 893,242 199,-291 573,-487 1002,-487 364,0 689,141 901,362 143,-57 308,-89 484,-89 545,0 986,310 986,693 0,207 -130,393 -335,520 -26,139 -148,244 -293,244l-1038 0c-195,126 -712,462 -978,462 -265,0 -510,-75 -705,-201l-733 0c-141,36 -526,-232 -640,-261l-638 0c-90,31 -188,48 -291,48 -460,0 -833,-346 -833,-774 0,-427 373,-774 833,-774z"/>
   </g>
  </g>
  <path class="fil10 str2" d="M3323 17c1822,0 3299,1484 3299,3315 0,1831 -1477,3315 -3299,3315 -1822,0 -3299,-1484 -3299,-3315 0,-1831 1477,-3315 3299,-3315z"/>
  <polygon class="fil13 str3" points="3084,967 3090,1075 3174,1083 3090,1091 3084,1199 3078,1091 2995,1083 3078,1075 "/>
  <polygon class="fil13 str3" points="2374,569 2385,605 2423,605 2393,627 2404,663 2374,641 2343,663 2355,627 2324,605 2362,605 "/>
  <polygon class="fil13 str3" points="939,1889 951,1925 989,1925 958,1947 970,1983 939,1960 909,1983 921,1947 890,1925 928,1925 "/>
  <polygon class="fil13 str3" points="4893,838 4904,874 4942,874 4911,896 4923,932 4893,910 4862,932 4874,896 4843,874 4881,874 "/>
  <polygon class="fil13 str3" points="6063,2512 6075,2548 6113,2547 6082,2570 6094,2606 6063,2583 6033,2606 6045,2570 6014,2547 6052,2548 "/>
  <polygon class="fil13 str3" points="391,2786 402,2822 440,2822 409,2844 421,2880 391,2858 360,2880 372,2844 341,2822 379,2822 "/>
  <polygon class="fil13 str3" points="1906,2470 1917,2506 1955,2506 1924,2528 1936,2564 1906,2542 1875,2564 1887,2528 1856,2506 1894,2506 "/>
  <polygon class="fil13 str3" points="5316,2488 5328,2524 5365,2524 5335,2546 5347,2582 5316,2560 5286,2582 5297,2546 5267,2524 5304,2524 "/>
  <polygon class="fil13 str3" points="1900,1430 1907,1534 1989,1509 1911,1549 1955,1637 1900,1558 1845,1637 1890,1549 1811,1509 1894,1534 "/>
  <polygon class="fil13 str3" points="2097,2059 2099,2103 2134,2092 2101,2109 2120,2147 2097,2113 2073,2147 2092,2109 2059,2092 2094,2103 "/>
  <polygon class="fil13 str3" points="3040,267 3046,354 3115,333 3049,366 3086,440 3040,374 2994,440 3032,366 2965,333 3035,354 "/>
  <polygon class="fil13 str3" points="5675,2487 5681,2573 5749,2553 5684,2585 5721,2659 5675,2593 5630,2659 5667,2585 5601,2553 5670,2573 "/>
  <polygon class="fil13 str3" points="912,2322 905,2415 962,2508 922,2428 831,2393 902,2430 992,2393 918,2414 862,2508 913,2439 "/>
  <polygon class="fil13 str3" points="4026,707 4022,758 4054,809 4032,765 3982,746 4021,766 4071,746 4030,757 3999,809 4027,771 "/>
  <polygon class="fil13 str3" points="2801,2298 2793,2405 2858,2512 2813,2420 2708,2380 2789,2423 2893,2380 2807,2404 2744,2512 2802,2432 "/>
  <polygon class="fil13 str3" points="521,4306 532,4342 570,4342 540,4364 551,4400 521,4378 490,4400 502,4364 472,4342 509,4342 "/>
  <polygon class="fil13 str3" points="1570,4533 1582,4569 1620,4569 1589,4591 1601,4627 1570,4605 1540,4627 1551,4591 1521,4569 1559,4569 "/>
  <polygon class="fil13 str3" points="5724,4341 5736,4377 5773,4377 5743,4399 5754,4435 5724,4413 5693,4435 5705,4399 5675,4377 5712,4377 "/>
  <polygon class="fil13 str3" points="5856,4716 5868,4751 5905,4751 5875,4774 5886,4809 5856,4787 5825,4809 5837,4774 5807,4751 5844,4751 "/>
  <polygon class="fil13 str3" points="6313,3756 6324,3792 6362,3792 6332,3814 6343,3850 6313,3828 6282,3850 6294,3814 6264,3792 6301,3792 "/>
  <path class="fil13" d="M328 3665c36,0 68,23 90,59 20,-16 52,-26 90,-26 60,0 109,27 109,60 0,2 0,4 -1,7 8,3 15,8 21,13 14,-12 33,-20 55,-20 42,0 75,28 75,62 0,12 -4,23 -11,32 7,9 11,19 11,30 0,17 -10,32 -26,44 -8,34 -39,60 -76,60l-143 0c-15,11 -34,18 -54,18 -20,0 -38,-7 -54,-18l-8 0c-10,0 -20,-2 -30,-6 -15,10 -31,15 -49,15 -65,0 -117,-74 -117,-165 0,-91 52,-165 117,-165z"/>
  <path class="fil13 str3" d="M5610 4908c23,1 41,15 41,32 0,18 -20,32 -46,32 -7,0 -13,-1 -19,-3 -22,23 -56,37 -95,37 -29,0 -55,-8 -76,-21 -12,3 -25,5 -38,5 -81,0 -147,-60 -147,-135 0,-74 66,-135 147,-135 26,0 50,6 71,17 15,-8 32,-13 52,-13 49,0 88,31 88,69 0,19 -10,36 -25,49 26,15 43,39 46,66z"/>
  <path class="fil8" d="M4755 217c72,0 138,17 190,46 37,-24 82,-38 131,-38 76,0 143,34 187,88 58,-37 144,-60 241,-60 174,0 315,75 315,168 0,29 -14,56 -38,80 24,26 38,56 38,88 0,104 -147,188 -328,188 -56,0 -109,-8 -155,-22l-99 0c-45,12 -95,18 -149,18 -53,0 -104,-7 -149,-18l-169 0c-82,0 -149,-66 -151,-148 -100,-34 -169,-104 -169,-185 0,-114 136,-206 303,-206z"/>
  <path class="fil14" d="M319 5912l208 0c41,0 82,12 123,37 12,8 24,17 37,29 17,18 28,31 33,41 25,39 38,81 38,126l0 3c0,49 -15,96 -46,138 -6,9 -17,21 -35,38 74,74 111,111 111,112 10,14 15,27 15,41l0 6c0,17 -7,34 -22,50 -15,14 -31,21 -49,21l-126 0c-17,0 -33,-7 -48,-21l-78 -78 0 26c0,18 -7,35 -21,50 -15,15 -32,22 -50,22l-89 0c-22,0 -41,-10 -57,-30 -9,-13 -14,-27 -14,-40l0 -500c0,-19 8,-36 24,-52 15,-13 30,-19 47,-19zm0 26c-12,0 -23,5 -33,16 -8,8 -12,20 -12,37l0 483c0,21 7,36 21,45 8,5 15,8 24,8l89 0c14,0 26,-7 37,-20 6,-8 8,-17 8,-25l0 -64c1,-7 4,-11 10,-11 4,0 9,4 16,12 24,24 57,56 98,97 9,8 18,12 25,12 0,1 4,1 13,1l108 0c20,0 34,-6 42,-17 7,-9 11,-18 11,-28l0 -5c0,-14 -9,-28 -26,-43 -69,-69 -105,-104 -107,-107 -1,-1 -1,-2 -1,-4l0 -2c0,-4 4,-8 12,-13 16,-15 27,-26 33,-34 30,-39 44,-81 44,-127l0 -3c0,-52 -19,-99 -56,-141 -42,-44 -94,-66 -156,-66 -80,0 -146,0 -200,0zm207 34c39,0 76,14 110,42 41,37 61,81 61,134 0,47 -18,88 -53,125 -18,16 -35,27 -49,33 -10,4 -15,7 -17,7l0 0c106,105 160,159 162,161 1,3 2,5 2,7 0,6 -4,11 -12,13l-123 0c-4,0 -10,-5 -20,-15l-158 -156 -11 0 0 157c0,8 -4,12 -12,14l-87 0c-5,0 -9,-3 -12,-10 0,-1 0,-2 0,-3l0 -495c0,-6 3,-10 10,-13l207 0zm-107 111l0 128 93 0c18,0 30,-2 37,-6 7,-3 14,-9 22,-18 9,-12 14,-25 14,-39 0,-25 -12,-44 -35,-58 -9,-4 -19,-7 -29,-7 -26,0 -60,0 -102,0z"/>
  <path id="1" class="fil14" d="M901 5912l90 0c20,0 38,9 55,27 11,15 16,29 16,44l0 500c0,20 -9,38 -27,55 -15,11 -29,16 -44,16l-90 0c-20,0 -38,-9 -55,-27 -11,-15 -16,-29 -16,-44l0 -500c0,-20 9,-38 27,-55 15,-11 29,-16 44,-16zm-44 78l0 485c0,24 10,40 30,49 5,2 13,3 23,3l73 0c19,0 32,-5 41,-16 8,-8 13,-20 13,-36l0 -485c0,-24 -10,-40 -30,-49 -5,-2 -13,-3 -23,-3l-73 0c-19,0 -32,5 -41,16 -8,8 -13,20 -13,36zm46 -18l88 0c5,0 9,3 11,10 0,3 0,5 0,7l0 486c0,9 -3,15 -9,17l-3 0 -88 0c-5,0 -9,-4 -11,-11 0,-2 0,-5 0,-7l0 -486c0,-9 3,-15 9,-17l3 0z"/>
  <path id="2" class="fil14" d="M1165 5911l209 0c40,0 80,12 121,37 45,29 77,70 97,124 8,25 12,49 12,71l0 10c0,43 -13,86 -41,127 -6,10 -17,22 -33,39 -47,43 -101,65 -162,65l-42 0 0 97c0,30 -14,52 -42,68 -10,5 -20,7 -29,7l-91 0c-19,0 -37,-9 -54,-26 -11,-15 -17,-30 -17,-45l0 -502c0,-19 8,-36 24,-52 15,-13 31,-19 47,-19zm8 27l-8 0c-15,0 -28,7 -38,21 -5,7 -7,17 -7,31l0 486c0,19 6,34 19,43 7,6 18,10 34,10l74 0c19,0 33,-6 42,-17 7,-9 11,-19 11,-31l0 -115c1,-6 5,-9 11,-9l60 0c55,0 104,-20 147,-61 41,-43 61,-93 61,-148 0,-56 -21,-106 -63,-149 -42,-40 -92,-60 -149,-60 -77,0 -141,0 -192,0zm198 34c38,0 74,13 108,40 16,15 27,26 32,35 21,31 32,64 32,97l0 8c0,38 -13,74 -40,108 -37,43 -83,64 -136,64l-102 0 0 156c0,8 -3,12 -9,15 -1,1 -2,1 -3,1l-88 0c-5,0 -9,-4 -12,-11l0 -500c0,-5 3,-9 10,-12l208 0zm-107 112l0 128 94 0c20,0 34,-3 42,-10 13,-7 22,-19 28,-36 2,-7 2,-13 2,-18 0,-20 -9,-38 -26,-51 -12,-8 -24,-13 -36,-13 -44,0 -79,0 -105,0z"/>
  <path class="fil14" d="M1972 5912l85 0c27,0 48,13 64,38 6,11 9,24 9,38l0 95 46 0 0 -96c0,-30 14,-52 41,-68 11,-5 20,-7 29,-7l91 0c19,0 37,9 53,26 11,15 17,30 17,44l0 500c0,21 -10,40 -29,56 -14,10 -28,15 -44,15l-85 0c-27,0 -48,-13 -64,-38 -6,-11 -9,-24 -9,-38l0 -162 -46 0 0 164c0,30 -14,52 -42,68 -11,5 -20,7 -29,7l-90 0c-19,0 -37,-9 -54,-26 -11,-15 -17,-30 -17,-45l0 -500c0,-21 10,-40 29,-56 13,-10 28,-15 44,-15zm231 74l0 114c-1,6 -4,10 -9,10l-81 0c-6,-1 -9,-5 -9,-10l0 -114c0,-20 -10,-35 -29,-45 -6,-2 -12,-3 -18,-3l-86 0c-17,0 -31,9 -41,26 -3,6 -5,15 -5,26l0 485c0,20 7,35 20,44 7,6 18,9 32,9l74 0c19,0 33,-6 42,-17 7,-9 11,-19 11,-31l0 -181c0,-5 3,-8 10,-9l79 0c7,1 10,4 10,9l0 181c0,20 10,35 29,45 6,2 12,3 18,3l86 0c17,0 31,-9 41,-26 3,-6 5,-15 5,-25l0 -485c0,-20 -7,-35 -20,-44 -7,-6 -18,-9 -32,-9l-73 0c-19,0 -33,6 -42,17 -7,9 -11,19 -11,31zm-230 -13l83 0c6,0 10,3 13,10 0,2 0,4 0,5l0 156 167 0 0 -156c0,-7 3,-12 9,-15 1,0 2,0 3,0l87 0c5,0 9,3 12,10l0 498c0,6 -4,10 -10,13 -1,0 -2,0 -3,0l-84 0c-6,0 -10,-3 -13,-10 0,-2 0,-4 0,-5l0 -223 -167 0 0 223c0,8 -3,12 -9,15 -1,0 -2,0 -3,0l-88 0c-5,0 -9,-4 -11,-11l0 -497c0,-8 5,-12 14,-13z"/>
  <path class="fil14" d="M2800 5913l2 0c6,0 12,7 17,20 1,2 48,91 139,269 2,4 49,93 139,269 1,2 2,4 2,7 0,4 -3,8 -8,11 -2,1 -4,1 -5,1l-102 0c-6,0 -11,-6 -16,-17 -33,-64 -50,-97 -50,-98l-235 0c0,0 -19,37 -56,109 -3,4 -7,6 -11,6l-101 0c-8,-2 -12,-6 -12,-13 0,-3 4,-13 13,-29l181 -351c56,-109 87,-168 92,-178 3,-4 7,-6 12,-6z"/>
  <path class="fil14" d="M2468 6475l0 5c0,15 8,28 23,40 8,4 16,6 23,6l104 0c18,0 32,-9 42,-28 8,-15 22,-43 43,-83 2,-2 5,-3 8,-3l180 0c6,0 11,5 14,16 1,1 14,27 40,78 10,14 25,22 46,22l88 0c23,0 39,-8 48,-25 4,-7 7,-14 7,-22l0 -5c0,-8 -5,-22 -16,-40l-153 -296 -123 -239c-10,-15 -24,-22 -41,-22 -21,0 -37,11 -47,33 -142,274 -214,415 -217,421 -43,81 -65,124 -67,130 -1,5 -2,9 -2,13z"/>
  <path class="fil15 str4" d="M2798 5851l5 0c22,0 41,10 58,29 3,4 14,24 32,59 135,261 203,392 203,394 36,69 56,109 60,118 3,9 5,17 5,24l0 6c0,16 -7,33 -21,49 -16,15 -33,23 -51,23l-106 0c-20,0 -39,-9 -55,-27 -6,-9 -16,-26 -28,-52 -10,-20 -16,-32 -18,-36l-160 0c-25,49 -39,77 -44,83 -16,21 -36,32 -60,32l-104 0c-26,0 -48,-13 -64,-39 -6,-13 -10,-24 -10,-34l0 -6c0,-13 6,-30 17,-49 135,-261 203,-394 205,-396 47,-91 72,-140 76,-147 17,-21 37,-32 60,-32z"/>
  <path class="fil16" d="M2800 6149l-57 110 114 0c-36,-69 -54,-106 -56,-110l-1 0z"/>
  <path class="fil14" d="M3472 5972c39,0 76,14 110,42 41,37 61,81 61,134 0,47 -18,88 -53,125 -18,16 -35,27 -49,33 -10,4 -15,7 -17,7l0 0c106,105 160,159 162,161 1,3 2,5 2,7 0,6 -4,11 -12,13l-123 0c-4,0 -10,-5 -20,-15l-158 -156 -11 0 0 157c0,8 -4,12 -12,14l-87 0c-5,0 -9,-3 -12,-10 0,-1 0,-2 0,-3l0 -495c0,-6 3,-10 10,-13l207 0z"/>
  <path class="fil14" d="M3265 5938c-12,0 -23,5 -33,16 -8,8 -12,20 -12,37l0 483c0,21 7,36 21,45 8,5 15,8 24,8l89 0c14,0 26,-7 37,-20 6,-8 8,-17 8,-25l0 -64c1,-7 4,-11 10,-11 4,0 9,4 16,12 24,24 57,56 98,97 9,8 18,12 25,12 0,1 4,1 13,1l108 0c20,0 34,-6 42,-17 7,-9 11,-18 11,-28l0 -5c0,-14 -9,-28 -26,-43 -69,-69 -105,-104 -107,-107 -1,-1 -1,-2 -1,-4l0 -2c0,-4 4,-8 12,-13 16,-15 27,-26 33,-34 30,-39 44,-81 44,-127l0 -3c0,-52 -19,-99 -56,-141 -42,-44 -94,-66 -156,-66 -80,0 -146,0 -200,0z"/>
  <path class="fil15 str4" d="M3266 5912l208 0c41,0 82,12 123,37 12,8 24,17 37,29 17,18 28,31 33,41 25,39 38,81 38,126l0 3c0,49 -15,96 -46,138 -6,9 -17,21 -35,38 74,74 111,111 111,112 10,14 15,27 15,41l0 6c0,17 -7,34 -22,50 -15,14 -31,21 -49,21l-126 0c-17,0 -33,-7 -48,-21l-78 -78 0 26c0,18 -7,35 -21,50 -15,15 -32,22 -50,22l-89 0c-22,0 -41,-10 -57,-30 -9,-13 -14,-27 -14,-40l0 -500c0,-19 8,-36 24,-52 15,-13 30,-19 47,-19z"/>
  <path class="fil16" d="M3365 6083l0 128 93 0c18,0 30,-2 37,-6 7,-3 14,-9 22,-18 9,-12 14,-25 14,-39 0,-25 -12,-44 -35,-58 -9,-4 -19,-7 -29,-7 -26,0 -60,0 -102,0z"/>
  <path class="fil14" d="M4138 5913l2 0c6,0 12,7 17,20 1,2 48,91 139,269 2,4 49,93 139,269 1,2 2,4 2,7 0,4 -3,8 -8,11 -2,1 -4,1 -5,1l-102 0c-6,0 -11,-6 -16,-17 -33,-64 -50,-97 -50,-98l-235 0c0,0 -19,37 -56,109 -3,4 -7,6 -11,6l-101 0c-8,-2 -12,-6 -12,-13 0,-3 4,-13 13,-29l181 -351c56,-109 87,-168 92,-178 3,-4 7,-6 12,-6z"/>
  <path class="fil14" d="M3805 6475l0 5c0,15 8,28 23,40 8,4 16,6 23,6l104 0c18,0 32,-9 42,-28 8,-15 22,-43 43,-83 2,-2 5,-3 8,-3l180 0c6,0 11,5 14,16 1,1 14,27 40,78 10,14 25,22 46,22l88 0c23,0 39,-8 48,-25 4,-7 7,-14 7,-22l0 -5c0,-8 -5,-22 -16,-40l-153 -296 -123 -239c-10,-15 -24,-22 -41,-22 -21,0 -37,11 -47,33 -142,274 -214,415 -217,421 -43,81 -65,124 -67,130 -1,5 -2,9 -2,13z"/>
  <path class="fil15 str4" d="M4135 5851l5 0c22,0 41,10 58,29 3,4 14,24 32,59 135,261 203,392 203,394 36,69 56,109 60,118 3,9 5,17 5,24l0 6c0,16 -7,33 -21,49 -16,15 -33,23 -51,23l-106 0c-20,0 -39,-9 -55,-27 -6,-9 -16,-26 -28,-52 -10,-20 -16,-32 -18,-36l-160 0c-25,49 -39,77 -44,83 -16,21 -36,32 -60,32l-104 0c-26,0 -48,-13 -64,-39 -6,-13 -10,-24 -10,-34l0 -6c0,-13 6,-30 17,-49 135,-261 203,-394 205,-396 47,-91 72,-140 76,-147 17,-21 37,-32 60,-32z"/>
  <path class="fil16" d="M4138 6149l-57 110 114 0c-36,-69 -54,-106 -56,-110l-1 0z"/>
  <path class="fil14" d="M4795 5853l6 0c21,0 39,9 55,28 5,7 10,17 14,29l54 156 0 0c3,-10 23,-67 60,-171 3,-7 9,-15 18,-24 14,-12 29,-18 45,-18l6 0c20,0 39,9 55,28 6,8 10,17 13,28 98,280 147,422 148,424 27,79 43,123 45,132 1,5 1,9 1,13l0 5c0,19 -9,36 -26,52 -13,12 -30,18 -52,18l-77 0c-23,0 -40,-5 -52,-15 -13,-9 -23,-26 -31,-52 -19,-54 -28,-81 -28,-82l-1 0c-38,109 -58,166 -60,171 -3,7 -9,15 -19,25 -14,11 -29,17 -45,17l-5 0c-23,0 -43,-11 -59,-33 -5,-7 -12,-25 -21,-55 0,-1 -15,-42 -43,-124l-1 0c-22,66 -35,103 -39,111 -8,16 -22,27 -42,35 -7,2 -17,3 -29,3l-77 0c-25,0 -44,-8 -57,-23 -14,-15 -21,-30 -21,-47l0 -5c0,-9 4,-25 13,-48 10,-28 58,-166 143,-412 26,-76 41,-118 45,-127 3,-6 9,-13 16,-20 14,-12 30,-18 45,-18zm-237 627c0,16 8,30 25,41 7,3 15,5 24,5l83 0c24,0 40,-10 48,-31 32,-93 50,-142 52,-148 2,-3 5,-4 8,-4 6,0 10,6 12,17l72 205c10,17 24,25 42,25 19,0 33,-9 43,-28 48,-137 73,-208 75,-215 2,-3 5,-4 9,-4 6,0 9,5 12,15l50 141c9,17 24,26 46,26l83 0c22,0 37,-10 46,-30 2,-3 3,-8 3,-16 0,-7 -4,-20 -12,-41 -90,-258 -137,-392 -140,-401 -28,-82 -44,-126 -47,-134 -10,-16 -24,-24 -41,-24 -20,0 -34,9 -43,28 -49,141 -74,213 -75,216 -3,2 -5,4 -8,4 -6,0 -10,-5 -13,-16 0,-1 -24,-68 -71,-203 -10,-18 -24,-27 -43,-27 -18,0 -32,9 -42,27 -86,247 -134,384 -143,411 -34,95 -52,147 -54,155 -1,5 -1,8 -1,8zm239 -568l2 0c6,0 10,3 13,10l113 325 0 0c1,-4 39,-113 115,-329 3,-4 7,-6 11,-6l1 0c8,0 13,6 15,18 3,8 43,122 119,342 45,128 69,196 71,205 0,0 0,1 0,2 0,6 -3,11 -10,13 -2,1 -4,1 -7,1l-80 0c-10,0 -16,-3 -17,-8 -60,-171 -90,-258 -91,-263 -1,0 -4,10 -11,30 -8,23 -43,122 -103,296 -3,6 -7,8 -12,8l-1 0c-7,0 -13,-7 -15,-20 -2,-5 -37,-103 -103,-294 -4,-13 -7,-20 -8,-21 -52,150 -82,238 -92,265 -2,4 -8,6 -16,6l-80 0c-9,0 -14,-3 -16,-8 -1,-2 -1,-4 -1,-5 0,-2 13,-39 38,-111 4,-10 49,-140 135,-388 13,-40 21,-61 22,-63 3,-4 6,-5 9,-5z"/>
  <path class="fil14" d="M5422 5912l169 0c38,0 76,12 114,35 10,6 23,17 39,33 17,19 28,35 33,47 16,31 24,63 24,94l0 9c0,8 -1,18 -3,29 21,23 38,50 49,80 9,27 13,51 13,73l0 10c0,45 -14,89 -43,132 -7,9 -17,21 -32,36 -11,10 -21,18 -30,23 -18,12 -38,22 -61,29 -24,6 -45,10 -63,10l-208 0c-22,0 -41,-10 -57,-30 -9,-13 -14,-27 -14,-40l0 -500c0,-19 9,-37 26,-54 15,-11 30,-17 44,-17zm-44 73l0 496c0,16 8,29 23,39 7,4 15,6 23,6l202 0c48,0 92,-16 132,-48 16,-14 27,-26 33,-35 28,-39 42,-80 42,-124l0 -4c0,-49 -17,-95 -52,-136 -7,-6 -11,-11 -11,-15 2,-13 4,-25 4,-36l0 -4c0,-43 -14,-83 -44,-119 -12,-14 -21,-23 -27,-27 -35,-27 -74,-41 -115,-41l-164 0c-18,0 -33,9 -42,27 -3,6 -4,13 -4,19zm211 -13c40,0 77,16 110,48 28,32 42,66 42,102l0 7c0,15 -3,31 -9,49l0 0c15,13 27,25 35,37 22,32 33,65 33,98l0 8c0,38 -13,74 -40,109 -16,17 -27,27 -32,29 -31,22 -64,33 -99,33l-206 0c-5,0 -9,-4 -12,-11l0 -499c0,-5 3,-9 10,-11l167 0zm-67 111l0 60 84 0c4,0 10,0 19,0 2,-6 3,-11 3,-15 0,-13 -5,-24 -14,-35 -8,-7 -18,-11 -29,-11l-64 0zm0 172l0 127c41,0 71,0 90,0l12 0c24,0 43,-11 57,-32 6,-10 8,-21 8,-32 0,-22 -10,-40 -30,-54 -11,-6 -21,-9 -30,-9l-49 0c-13,0 -32,0 -57,0z"/>
  <path class="fil14" d="M5963 5912l368 0c19,0 37,9 53,26 11,15 17,30 17,44l0 90c0,20 -9,38 -27,55 -14,11 -29,16 -46,16l-90 0c1,5 1,10 1,15l0 83c0,27 -12,48 -37,64 -12,6 -23,10 -34,10l-45 0 0 7 206 0c23,0 42,10 58,30 9,13 14,27 14,41l0 90c0,20 -9,38 -26,54 -14,11 -29,17 -44,17l-368 0c-22,0 -41,-10 -57,-30 -9,-13 -14,-27 -14,-40l0 -500c0,-19 9,-37 26,-54 15,-11 30,-17 44,-17zm-44 78l0 485c0,16 4,28 12,36 10,11 21,16 33,16l21 0c81,0 195,0 342,0 18,0 32,-8 42,-24 4,-7 6,-16 6,-28l0 -75c0,-24 -10,-40 -29,-49 -6,-2 -11,-3 -16,-3l-221 0c-8,-1 -11,-4 -11,-9l0 -40c1,-7 4,-10 9,-10l52 0c18,0 31,-4 38,-13 10,-9 15,-21 15,-35l0 -84c0,-9 -3,-18 -8,-28l0 -3c0,-6 4,-9 11,-10l114 0c17,0 31,-9 41,-26 3,-6 5,-15 5,-26l0 -75c0,-20 -6,-34 -19,-42 -7,-7 -19,-10 -34,-10l-352 0c-20,0 -34,6 -42,19 -7,7 -10,18 -10,33zm411 -18c5,0 9,3 12,10l0 88c0,6 -3,10 -9,12 -1,0 -2,0 -4,0l-264 0 0 60 101 0c7,0 12,3 14,10 0,2 0,4 0,5l0 82c0,8 -4,13 -12,14l-103 0 0 127 265 0c9,1 13,5 13,13l0 87c0,5 -4,9 -11,11l-366 0c-5,0 -9,-4 -12,-11l0 -499c0,-5 3,-9 10,-11l366 0z"/>
 </g>
</svg>
